<?xml version="1.0" standalone="no"?><svg xmlns:xlink="http://www.w3.org/1999/xlink" xmlns="http://www.w3.org/2000/svg" viewBox="0 0 1000 500" preserveAspectRatio="xMaxYMax slice"><g transform="scale(0.4921259842519685)"><rect x="0" y="0" width="2032" height="1016" fill="#000000"/><rect x="0" y="0" width="203.2" height="203.2" fill="#000000"/><circle cx="50.8" cy="50.8" r="50.8" fill="#8b1d37"/><circle cx="152.39999999999998" cy="50.8" r="50.8" fill="#16971d"/><circle cx="50.8" cy="152.39999999999998" r="50.8" fill="#0c4e0f"/><circle cx="152.39999999999998" cy="152.39999999999998" r="50.8" fill="#310a14"/><circle cx="304.79999999999995" cy="101.6" r="101.6" fill="#d42c54"/><rect x="406.4" y="0" width="203.2" height="203.2" fill="#000000"/><circle cx="457.2" cy="50.8" r="50.8" fill="#1fd529"/><circle cx="558.8" cy="50.8" r="50.8" fill="#08360b"/><circle cx="457.2" cy="152.39999999999998" r="50.8" fill="#0d5711"/><circle cx="558.8" cy="152.39999999999998" r="50.8" fill="#127a18"/><rect x="609.5999999999999" y="0" width="203.2" height="203.2" fill="#000000"/><circle cx="660.4" cy="50.8" r="50.8" fill="#a82343"/><circle cx="762" cy="50.8" r="50.8" fill="#a12140"/><circle cx="660.4" cy="152.39999999999998" r="50.8" fill="#020e03"/><circle cx="762" cy="152.39999999999998" r="50.8" fill="#781930"/><circle cx="914.4" cy="101.6" r="101.6" fill="#971f3c"/><rect x="1016" y="0" width="203.2" height="203.2" fill="#000000"/><circle cx="1066.8" cy="50.8" r="50.8" fill="#d32c54"/><circle cx="1168.3999999999999" cy="50.8" r="50.8" fill="#e02f59"/><circle cx="1066.8" cy="152.39999999999998" r="50.8" fill="#6c162b"/><circle cx="1168.3999999999999" cy="152.39999999999998" r="50.8" fill="#000000"/><rect x="1219.1999999999998" y="0" width="203.2" height="203.2" fill="#000000"/><circle cx="1270" cy="50.8" r="50.8" fill="#bb274a"/><circle cx="1371.6" cy="50.8" r="50.8" fill="#0d0305"/><circle cx="1270" cy="152.39999999999998" r="50.8" fill="#d62c55"/><circle cx="1371.6" cy="152.39999999999998" r="50.8" fill="#6b162a"/><circle cx="1524" cy="101.6" r="101.6" fill="#ee325e"/><rect x="1625.6" y="0" width="203.2" height="203.2" fill="#000000"/><circle cx="1676.3999999999999" cy="50.8" r="50.8" fill="#9e213f"/><circle cx="1778" cy="50.8" r="50.8" fill="#0f0306"/><circle cx="1676.3999999999999" cy="152.39999999999998" r="50.8" fill="#1bb723"/><circle cx="1778" cy="152.39999999999998" r="50.8" fill="#c82a4f"/><circle cx="1930.3999999999999" cy="101.6" r="101.6" fill="#4e101f"/><rect x="0" y="203.2" width="203.2" height="203.2" fill="#000000"/><circle cx="50.8" cy="254" r="50.8" fill="#1ab122"/><circle cx="152.39999999999998" cy="254" r="50.8" fill="#891d36"/><circle cx="50.8" cy="355.6" r="50.8" fill="#1fd429"/><circle cx="152.39999999999998" cy="355.6" r="50.8" fill="#681629"/><circle cx="304.79999999999995" cy="304.79999999999995" r="101.6" fill="#000301"/><rect x="406.4" y="203.2" width="203.2" height="203.2" fill="#000000"/><circle cx="457.2" cy="254" r="50.8" fill="#24080e"/><circle cx="558.8" cy="254" r="50.8" fill="#14851a"/><circle cx="457.2" cy="355.6" r="50.8" fill="#137e18"/><circle cx="558.8" cy="355.6" r="50.8" fill="#861c35"/><circle cx="711.2" cy="304.79999999999995" r="101.6" fill="#d92d56"/><rect x="812.8" y="203.2" width="203.2" height="203.2" fill="#000000"/><circle cx="863.5999999999999" cy="254" r="50.8" fill="#c0284c"/><circle cx="965.1999999999999" cy="254" r="50.8" fill="#127817"/><circle cx="863.5999999999999" cy="355.6" r="50.8" fill="#19ab21"/><circle cx="965.1999999999999" cy="355.6" r="50.8" fill="#ab2444"/><rect x="1016" y="203.2" width="203.2" height="203.2" fill="#000000"/><circle cx="1066.8" cy="254" r="50.8" fill="#106d15"/><circle cx="1168.3999999999999" cy="254" r="50.8" fill="#15901c"/><circle cx="1066.8" cy="355.6" r="50.8" fill="#1ecf28"/><circle cx="1168.3999999999999" cy="355.6" r="50.8" fill="#a12140"/><circle cx="1320.8" cy="304.79999999999995" r="101.6" fill="#0a420d"/><circle cx="1524" cy="304.79999999999995" r="101.6" fill="#74182e"/><circle cx="1727.1999999999998" cy="304.79999999999995" r="101.6" fill="#158c1b"/><rect x="1828.8" y="203.2" width="203.2" height="203.2" fill="#000000"/><circle cx="1879.6" cy="254" r="50.8" fill="#4d101e"/><circle cx="1981.2" cy="254" r="50.8" fill="#ba2749"/><circle cx="1879.6" cy="355.6" r="50.8" fill="#1fd229"/><circle cx="1981.2" cy="355.6" r="50.8" fill="#ad2445"/><circle cx="101.6" cy="508" r="101.6" fill="#1ecc28"/><rect x="203.2" y="406.4" width="203.2" height="203.2" fill="#000000"/><circle cx="254" cy="457.2" r="50.8" fill="#0c5310"/><circle cx="355.6" cy="457.2" r="50.8" fill="#27080f"/><circle cx="254" cy="558.8" r="50.8" fill="#127717"/><circle cx="355.6" cy="558.8" r="50.8" fill="#501120"/><circle cx="508" cy="508" r="101.6" fill="#951f3b"/><rect x="609.5999999999999" y="406.4" width="203.2" height="203.2" fill="#000000"/><circle cx="660.4" cy="457.2" r="50.8" fill="#117116"/><circle cx="762" cy="457.2" r="50.8" fill="#179f1f"/><circle cx="660.4" cy="558.8" r="50.8" fill="#20070d"/><circle cx="762" cy="558.8" r="50.8" fill="#137f18"/><circle cx="914.4" cy="508" r="101.6" fill="#0c5010"/><rect x="1016" y="406.4" width="203.2" height="203.2" fill="#000000"/><circle cx="1066.8" cy="457.2" r="50.8" fill="#0e6013"/><circle cx="1168.3999999999999" cy="457.2" r="50.8" fill="#3c0c18"/><circle cx="1066.8" cy="558.8" r="50.8" fill="#1dc626"/><circle cx="1168.3999999999999" cy="558.8" r="50.8" fill="#020b02"/><rect x="1219.1999999999998" y="406.4" width="203.2" height="203.2" fill="#000000"/><circle cx="1270" cy="457.2" r="50.8" fill="#2c0911"/><circle cx="1371.6" cy="457.2" r="50.8" fill="#072f09"/><circle cx="1270" cy="558.8" r="50.8" fill="#021003"/><circle cx="1371.6" cy="558.8" r="50.8" fill="#158b1b"/><circle cx="1524" cy="508" r="101.6" fill="#fd3564"/><circle cx="1727.1999999999998" cy="508" r="101.6" fill="#1bb723"/><circle cx="1930.3999999999999" cy="508" r="101.6" fill="#fe3565"/><rect x="0" y="609.5999999999999" width="203.2" height="203.2" fill="#000000"/><circle cx="50.8" cy="660.4" r="50.8" fill="#cb2a50"/><circle cx="152.39999999999998" cy="660.4" r="50.8" fill="#611426"/><circle cx="50.8" cy="762" r="50.8" fill="#08390b"/><circle cx="152.39999999999998" cy="762" r="50.8" fill="#3c0c18"/><rect x="203.2" y="609.5999999999999" width="203.2" height="203.2" fill="#000000"/><circle cx="254" cy="660.4" r="50.8" fill="#1dc426"/><circle cx="355.6" cy="660.4" r="50.8" fill="#8f1e39"/><circle cx="254" cy="762" r="50.8" fill="#5e1325"/><circle cx="355.6" cy="762" r="50.8" fill="#5e1325"/><rect x="406.4" y="609.5999999999999" width="203.2" height="203.2" fill="#000000"/><circle cx="457.2" cy="660.4" r="50.8" fill="#3e0d19"/><circle cx="558.8" cy="660.4" r="50.8" fill="#1cc025"/><circle cx="457.2" cy="762" r="50.8" fill="#5e1425"/><circle cx="558.8" cy="762" r="50.8" fill="#df2e58"/><rect x="609.5999999999999" y="609.5999999999999" width="203.2" height="203.2" fill="#000000"/><circle cx="660.4" cy="660.4" r="50.8" fill="#031404"/><circle cx="762" cy="660.4" r="50.8" fill="#e9305c"/><circle cx="660.4" cy="762" r="50.8" fill="#052507"/><circle cx="762" cy="762" r="50.8" fill="#70172c"/><circle cx="914.4" cy="711.2" r="101.6" fill="#073009"/><rect x="1016" y="609.5999999999999" width="203.2" height="203.2" fill="#000000"/><circle cx="1066.8" cy="660.4" r="50.8" fill="#0d0305"/><circle cx="1168.3999999999999" cy="660.4" r="50.8" fill="#7f1a32"/><circle cx="1066.8" cy="762" r="50.8" fill="#1eca27"/><circle cx="1168.3999999999999" cy="762" r="50.8" fill="#821b34"/><circle cx="1320.8" cy="711.2" r="101.6" fill="#106c15"/><rect x="1422.3999999999999" y="609.5999999999999" width="203.2" height="203.2" fill="#000000"/><circle cx="1473.2" cy="660.4" r="50.8" fill="#127d18"/><circle cx="1574.8" cy="660.4" r="50.8" fill="#138319"/><circle cx="1473.2" cy="762" r="50.8" fill="#951f3b"/><circle cx="1574.8" cy="762" r="50.8" fill="#020d03"/><rect x="1625.6" y="609.5999999999999" width="203.2" height="203.2" fill="#000000"/><circle cx="1676.3999999999999" cy="660.4" r="50.8" fill="#f73362"/><circle cx="1778" cy="660.4" r="50.8" fill="#041d06"/><circle cx="1676.3999999999999" cy="762" r="50.8" fill="#127717"/><circle cx="1778" cy="762" r="50.8" fill="#1fd329"/><circle cx="1930.3999999999999" cy="711.2" r="101.6" fill="#041d06"/><rect x="0" y="812.8" width="203.2" height="203.2" fill="#000000"/><circle cx="50.8" cy="863.5999999999999" r="50.8" fill="#b32547"/><circle cx="152.39999999999998" cy="863.5999999999999" r="50.8" fill="#b22546"/><circle cx="50.8" cy="965.1999999999999" r="50.8" fill="#631527"/><circle cx="152.39999999999998" cy="965.1999999999999" r="50.8" fill="#1fd329"/><circle cx="304.79999999999995" cy="914.4" r="101.6" fill="#052006"/><rect x="406.4" y="812.8" width="203.2" height="203.2" fill="#000000"/><circle cx="457.2" cy="863.5999999999999" r="50.8" fill="#ca2a50"/><circle cx="558.8" cy="863.5999999999999" r="50.8" fill="#9c203e"/><circle cx="457.2" cy="965.1999999999999" r="50.8" fill="#138419"/><circle cx="558.8" cy="965.1999999999999" r="50.8" fill="#0c4f0f"/><circle cx="711.2" cy="914.4" r="101.6" fill="#6c162b"/><circle cx="914.4" cy="914.4" r="101.6" fill="#6c162b"/><rect x="1016" y="812.8" width="203.2" height="203.2" fill="#000000"/><circle cx="1066.8" cy="863.5999999999999" r="50.8" fill="#08330a"/><circle cx="1168.3999999999999" cy="863.5999999999999" r="50.8" fill="#0d5911"/><circle cx="1066.8" cy="965.1999999999999" r="50.8" fill="#041c05"/><circle cx="1168.3999999999999" cy="965.1999999999999" r="50.8" fill="#0d5911"/><circle cx="1320.8" cy="914.4" r="101.6" fill="#f1325f"/><rect x="1422.3999999999999" y="812.8" width="203.2" height="203.2" fill="#000000"/><circle cx="1473.2" cy="863.5999999999999" r="50.8" fill="#a92343"/><circle cx="1574.8" cy="863.5999999999999" r="50.8" fill="#6e172b"/><circle cx="1473.2" cy="965.1999999999999" r="50.8" fill="#591323"/><circle cx="1574.8" cy="965.1999999999999" r="50.8" fill="#16931d"/><circle cx="1727.1999999999998" cy="914.4" r="101.6" fill="#150408"/><rect x="1828.8" y="812.8" width="203.2" height="203.2" fill="#000000"/><circle cx="1879.6" cy="863.5999999999999" r="50.8" fill="#179e1f"/><circle cx="1981.2" cy="863.5999999999999" r="50.8" fill="#0a460e"/><circle cx="1879.6" cy="965.1999999999999" r="50.8" fill="#c0284c"/><circle cx="1981.2" cy="965.1999999999999" r="50.8" fill="#df2e58"/></g></svg>