<?xml version="1.0" standalone="no"?><svg xmlns:xlink="http://www.w3.org/1999/xlink" xmlns="http://www.w3.org/2000/svg" viewBox="0 0 1000 500" preserveAspectRatio="xMaxYMax slice"><g transform="scale(0.4921259842519685)"><rect x="0" y="0" width="2032" height="1016" fill="#000000"/><rect x="0" y="0" width="203.2" height="203.2" fill="#1f5e22"/><path d="M 0 0 A 203.2 203.2 0 0 1 203.2 203.2 L 0 203.2L0 0" fill="#184a1a"/><rect x="203.2" y="0" width="203.2" height="203.2" fill="#1b531e"/><polygon points="203.2,0 406.4,0 406.4,203.2" fill="#29802e"/><rect x="406.4" y="0" width="203.2" height="203.2" fill="#0b220c"/><rect x="406.4" y="0" width="203.2" height="203.2" fill="#26752a"/><rect x="609.6" y="0" width="203.2" height="203.2" fill="#37ab3d"/><rect x="609.6" y="0" width="203.2" height="203.2" fill="#0b210c"/><rect x="812.8" y="0" width="203.2" height="203.2" fill="#103212"/><path d="M 812.8 0 A 203.2 203.2 0 0 0 1016 203.2 L 1016 0L812.8 0" fill="#38ac3d"/><rect x="1016" y="0" width="203.2" height="203.2" fill="#164418"/><rect x="1016" y="0" width="203.2" height="203.2" fill="#39b03f"/><rect x="1219.2" y="0" width="203.2" height="203.2" fill="#2b8530"/><path d="M 1219.2 0 A 203.2 203.2 0 0 1 1422.4 203.2 L 1219.2 203.2L1219.2 0" fill="#35a33a"/><rect x="1422.4" y="0" width="203.2" height="203.2" fill="#0a1d0b"/><polygon points="1422.4,0 1625.6000000000001,203.2 1422.4,203.2" fill="#081909"/><rect x="1625.6" y="0" width="203.2" height="203.2" fill="#184a1a"/><path d="M 1625.6 203.2 A 203.2 203.2 0 0 1  1828.8 0 L 1625.6 203.2 A 203.2 203.2 0 0 0 1828.8 0" fill="#1b531e"/><rect x="1828.8" y="0" width="203.2" height="203.2" fill="#133b15"/><rect x="1828.8" y="0" width="203.2" height="203.2" fill="#0c260e"/><rect x="0" y="203.2" width="203.2" height="203.2" fill="#081808"/><rect x="0" y="203.2" width="203.2" height="203.2" fill="#164519"/><rect x="203.2" y="203.2" width="203.2" height="203.2" fill="#194d1c"/><path d="M 203.2 203.2 A 203.2 203.2 0 0 0 406.4 406.4 L 406.4 203.2L203.2 203.2" fill="#0d290e"/><rect x="406.4" y="203.2" width="203.2" height="203.2" fill="#081909"/><path d="M 406.4 406.4 A 203.2 203.2 0 0 1  609.5999999999999 203.2 L 406.4 406.4 A 203.2 203.2 0 0 0 609.5999999999999 203.2" fill="#0d280e"/><rect x="609.6" y="203.2" width="203.2" height="203.2" fill="#020702"/><path d="M 609.6 406.4 A 203.2 203.2 0 0 1  812.8 203.2 L 812.8 406.4L609.6 406.4" fill="#0f2e10"/><rect x="812.8" y="203.2" width="203.2" height="203.2" fill="#2c8831"/><polygon points="812.8,203.2 1016,406.4 812.8,406.4" fill="#143e16"/><rect x="1016" y="203.2" width="203.2" height="203.2" fill="#1d5a20"/><polygon points="1016,203.2 1219.2,406.4 1016,406.4" fill="#18491a"/><rect x="1219.2" y="203.2" width="203.2" height="203.2" fill="#091a09"/><path d="M 1219.2 203.2 A 203.2 203.2 0 0 0 1422.4 406.4 L 1422.4 203.2L1219.2 203.2" fill="#010401"/><rect x="1422.4" y="203.2" width="203.2" height="203.2" fill="#0e2a0f"/><path d="M 1422.4 203.2 A 203.2 203.2 0 0 1  1625.6000000000001 406.4 L 1422.4 203.2 A 203.2 203.2 0 0 0 1625.6000000000001 406.4" fill="#297e2d"/><rect x="1625.6" y="203.2" width="203.2" height="203.2" fill="#071407"/><polygon points="1625.6,203.2 1828.8,406.4 1625.6,406.4" fill="#206223"/><rect x="1828.8" y="203.2" width="203.2" height="203.2" fill="#194d1b"/><rect x="1828.8" y="203.2" width="203.2" height="203.2" fill="#38ab3d"/><rect x="0" y="406.4" width="203.2" height="203.2" fill="#1e5d21"/><path d="M 0 609.5999999999999 A 203.2 203.2 0 0 1  203.2 406.4 L 0 609.5999999999999 A 203.2 203.2 0 0 0 203.2 406.4" fill="#071708"/><rect x="203.2" y="406.4" width="203.2" height="203.2" fill="#37ab3d"/><rect x="203.2" y="406.4" width="203.2" height="203.2" fill="#226825"/><rect x="406.4" y="406.4" width="203.2" height="203.2" fill="#0b220c"/><path d="M 406.4 609.5999999999999 A 203.2 203.2 0 0 0 609.5999999999999 406.4 L 406.4 406.4L406.4 609.5999999999999" fill="#164318"/><rect x="609.6" y="406.4" width="203.2" height="203.2" fill="#27782b"/><polygon points="609.6,406.4 812.8,609.5999999999999 609.6,609.5999999999999" fill="#1f6123"/><rect x="812.8" y="406.4" width="203.2" height="203.2" fill="#319635"/><path d="M 812.8 406.4 A 203.2 203.2 0 0 1  1016 609.5999999999999 L 812.8 406.4 A 203.2 203.2 0 0 0 1016 609.5999999999999" fill="#000000"/><rect x="1016" y="406.4" width="203.2" height="203.2" fill="#0a200b"/><polygon points="1016,406.4 1219.2,406.4 1016,609.5999999999999" fill="#154017"/><rect x="1219.2" y="406.4" width="203.2" height="203.2" fill="#040d04"/><rect x="1219.2" y="406.4" width="203.2" height="203.2" fill="#1c571f"/><rect x="1422.4" y="406.4" width="203.2" height="203.2" fill="#2e8d32"/><polygon points="1422.4,406.4 1625.6000000000001,406.4 1422.4,609.5999999999999" fill="#3ab440"/><rect x="1625.6" y="406.4" width="203.2" height="203.2" fill="#061106"/><path d="M 1625.6 406.4 A 203.2 203.2 0 0 0 1828.8 609.5999999999999 L 1828.8 406.4L1625.6 406.4" fill="#174719"/><rect x="1828.8" y="406.4" width="203.2" height="203.2" fill="#1a501c"/><rect x="1828.8" y="406.4" width="203.2" height="203.2" fill="#0a200b"/><rect x="0" y="609.6" width="203.2" height="203.2" fill="#246e27"/><polygon points="0,609.6 203.2,609.6 0,812.8" fill="#1b541e"/><rect x="203.2" y="609.6" width="203.2" height="203.2" fill="#329937"/><polygon points="203.2,609.6 406.4,609.6 203.2,812.8" fill="#0d280e"/><rect x="406.4" y="609.6" width="203.2" height="203.2" fill="#2a802e"/><rect x="406.4" y="609.6" width="203.2" height="203.2" fill="#1d5920"/><rect x="609.6" y="609.6" width="203.2" height="203.2" fill="#18491a"/><rect x="609.6" y="609.6" width="203.2" height="203.2" fill="#0c250d"/><rect x="812.8" y="609.6" width="203.2" height="203.2" fill="#3bb541"/><rect x="812.8" y="609.6" width="203.2" height="203.2" fill="#1c571f"/><rect x="1016" y="609.6" width="203.2" height="203.2" fill="#0c260e"/><rect x="1016" y="609.6" width="203.2" height="203.2" fill="#35a33a"/><rect x="1219.2" y="609.6" width="203.2" height="203.2" fill="#061307"/><rect x="1219.2" y="609.6" width="203.2" height="203.2" fill="#0f2d10"/><rect x="1422.4" y="609.6" width="203.2" height="203.2" fill="#226a26"/><path d="M 1422.4 812.8 A 203.2 203.2 0 0 0 1625.6000000000001 609.6 L 1422.4 609.6L1422.4 812.8" fill="#236d27"/><rect x="1625.6" y="609.6" width="203.2" height="203.2" fill="#26742a"/><rect x="1625.6" y="609.6" width="203.2" height="203.2" fill="#1a511d"/><rect x="1828.8" y="609.6" width="203.2" height="203.2" fill="#329937"/><path d="M 1828.8 812.8 A 203.2 203.2 0 0 1  2032 609.6 L 1828.8 812.8 A 203.2 203.2 0 0 0 2032 609.6" fill="#0c250d"/><rect x="0" y="812.8" width="203.2" height="203.2" fill="#236b26"/><polygon points="0,812.8 203.2,812.8 203.2,1016" fill="#206424"/><rect x="203.2" y="812.8" width="203.2" height="203.2" fill="#050e05"/><rect x="203.2" y="812.8" width="203.2" height="203.2" fill="#133b15"/><rect x="406.4" y="812.8" width="203.2" height="203.2" fill="#206223"/><path d="M 406.4 812.8 A 203.2 203.2 0 0 1  609.5999999999999 1016 L 406.4 812.8 A 203.2 203.2 0 0 0 609.5999999999999 1016" fill="#103011"/><rect x="609.6" y="812.8" width="203.2" height="203.2" fill="#081708"/><rect x="609.6" y="812.8" width="203.2" height="203.2" fill="#020602"/><rect x="812.8" y="812.8" width="203.2" height="203.2" fill="#27782b"/><rect x="812.8" y="812.8" width="203.2" height="203.2" fill="#34a23a"/><rect x="1016" y="812.8" width="203.2" height="203.2" fill="#050e05"/><polygon points="1016,812.8 1219.2,812.8 1016,1016" fill="#051006"/><rect x="1219.2" y="812.8" width="203.2" height="203.2" fill="#216625"/><polygon points="1219.2,812.8 1422.4,812.8 1422.4,1016" fill="#1f5f22"/><rect x="1422.4" y="812.8" width="203.2" height="203.2" fill="#0d280e"/><path d="M 1422.4 812.8 A 203.2 203.2 0 0 0 1625.6000000000001 1016 L 1625.6000000000001 812.8L1422.4 812.8" fill="#123814"/><rect x="1625.6" y="812.8" width="203.2" height="203.2" fill="#154117"/><polygon points="1625.6,812.8 1828.8,812.8 1828.8,1016" fill="#133914"/><rect x="1828.8" y="812.8" width="203.2" height="203.2" fill="#0d290f"/><rect x="1828.8" y="812.8" width="203.2" height="203.2" fill="#184b1b"/></g></svg>