<?xml version="1.0" standalone="no"?><svg xmlns:xlink="http://www.w3.org/1999/xlink" xmlns="http://www.w3.org/2000/svg" viewBox="0 0 1000 500" preserveAspectRatio="xMaxYMax slice"><g transform="scale(0.4921259842519685)"><rect x="0" y="0" width="2032" height="1016" fill="#000000"/><rect x="0" y="0" width="203.2" height="203.2" fill="#1c571f"/><g transform="translate(0,0) scale(10.16) rotate(0)"><rect width="2" height="20" fill="#2c8630"/><rect x="4" width="2" height="20" fill="#2c8630"/><rect x="8" width="2" height="20" fill="#2c8630"/><rect x="12" width="2" height="20" fill="#2c8630"/><rect x="16" width="2" height="20" fill="#2c8630"/></g><rect x="203.2" y="0" width="203.2" height="203.2" fill="#2b852f"/><g transform="translate(203.2,0) scale(10.16) rotate(0)"><rect width="2" height="20" fill="#194d1b"/><rect x="4" width="2" height="20" fill="#194d1b"/><rect x="8" width="2" height="20" fill="#194d1b"/><rect x="12" width="2" height="20" fill="#194d1b"/><rect x="16" width="2" height="20" fill="#194d1b"/></g><rect x="406.4" y="0" width="203.2" height="203.2" fill="#246f28"/><g transform="translate(406.4,0) scale(10.16) rotate(0)"><rect width="2" height="20" fill="#061307"/><rect x="4" width="2" height="20" fill="#061307"/><rect x="8" width="2" height="20" fill="#061307"/><rect x="12" width="2" height="20" fill="#061307"/><rect x="16" width="2" height="20" fill="#061307"/></g><rect x="609.6" y="0" width="203.2" height="203.2" fill="#206424"/><g transform="translate(609.6,0) scale(10.16) rotate(0)"><rect width="2" height="20" fill="#2f9234"/><rect x="4" width="2" height="20" fill="#2f9234"/><rect x="8" width="2" height="20" fill="#2f9234"/><rect x="12" width="2" height="20" fill="#2f9234"/><rect x="16" width="2" height="20" fill="#2f9234"/></g><rect x="812.8" y="0" width="203.2" height="203.2" fill="#309535"/><g transform="translate(812.8,0) scale(10.16) rotate(0)"><rect width="2" height="20" fill="#226825"/><rect x="4" width="2" height="20" fill="#226825"/><rect x="8" width="2" height="20" fill="#226825"/><rect x="12" width="2" height="20" fill="#226825"/><rect x="16" width="2" height="20" fill="#226825"/></g><rect x="1016" y="0" width="203.2" height="203.2" fill="#091a09"/><g transform="translate(1016,0) scale(10.16) rotate(0)"><rect width="2" height="20" fill="#091c0a"/><rect x="4" width="2" height="20" fill="#091c0a"/><rect x="8" width="2" height="20" fill="#091c0a"/><rect x="12" width="2" height="20" fill="#091c0a"/><rect x="16" width="2" height="20" fill="#091c0a"/></g><rect x="1219.2" y="0" width="203.2" height="203.2" fill="#1c571f"/><g transform="translate(1219.2,0) scale(10.16) rotate(0)"><rect width="2" height="20" fill="#309334"/><rect x="4" width="2" height="20" fill="#309334"/><rect x="8" width="2" height="20" fill="#309334"/><rect x="12" width="2" height="20" fill="#309334"/><rect x="16" width="2" height="20" fill="#309334"/></g><rect x="1422.4" y="0" width="203.2" height="203.2" fill="#164418"/><g transform="translate(1422.4,0) scale(10.16) rotate(0)"><rect width="2" height="20" fill="#0d280e"/><rect x="4" width="2" height="20" fill="#0d280e"/><rect x="8" width="2" height="20" fill="#0d280e"/><rect x="12" width="2" height="20" fill="#0d280e"/><rect x="16" width="2" height="20" fill="#0d280e"/></g><rect x="1625.6" y="0" width="203.2" height="203.2" fill="#319736"/><g transform="translate(1625.6,0) scale(10.16) rotate(0)"><rect width="2" height="20" fill="#38ae3e"/><rect x="4" width="2" height="20" fill="#38ae3e"/><rect x="8" width="2" height="20" fill="#38ae3e"/><rect x="12" width="2" height="20" fill="#38ae3e"/><rect x="16" width="2" height="20" fill="#38ae3e"/></g><rect x="1828.8" y="0" width="203.2" height="203.2" fill="#123714"/><g transform="translate(1828.8,0) scale(10.16) rotate(0)"><rect width="2" height="20" fill="#0b230d"/><rect x="4" width="2" height="20" fill="#0b230d"/><rect x="8" width="2" height="20" fill="#0b230d"/><rect x="12" width="2" height="20" fill="#0b230d"/><rect x="16" width="2" height="20" fill="#0b230d"/></g><rect x="0" y="203.2" width="203.2" height="203.2" fill="#297e2d"/><g transform="translate(0,203.2) scale(10.16) rotate(0)"><rect width="2" height="20" fill="#1e5c21"/><rect x="4" width="2" height="20" fill="#1e5c21"/><rect x="8" width="2" height="20" fill="#1e5c21"/><rect x="12" width="2" height="20" fill="#1e5c21"/><rect x="16" width="2" height="20" fill="#1e5c21"/></g><rect x="203.2" y="203.2" width="203.2" height="203.2" fill="#1e5c21"/><g transform="translate(203.2,203.2) scale(10.16) rotate(0)"><rect width="2" height="20" fill="#091c0a"/><rect x="4" width="2" height="20" fill="#091c0a"/><rect x="8" width="2" height="20" fill="#091c0a"/><rect x="12" width="2" height="20" fill="#091c0a"/><rect x="16" width="2" height="20" fill="#091c0a"/></g><rect x="406.4" y="203.2" width="203.2" height="203.2" fill="#133a15"/><g transform="translate(406.4,203.2) scale(10.16) rotate(0)"><rect width="2" height="20" fill="#2f9134"/><rect x="4" width="2" height="20" fill="#2f9134"/><rect x="8" width="2" height="20" fill="#2f9134"/><rect x="12" width="2" height="20" fill="#2f9134"/><rect x="16" width="2" height="20" fill="#2f9134"/></g><rect x="609.6" y="203.2" width="203.2" height="203.2" fill="#091c0a"/><g transform="translate(609.6,203.2) scale(10.16) rotate(0)"><rect width="2" height="20" fill="#236d27"/><rect x="4" width="2" height="20" fill="#236d27"/><rect x="8" width="2" height="20" fill="#236d27"/><rect x="12" width="2" height="20" fill="#236d27"/><rect x="16" width="2" height="20" fill="#236d27"/></g><rect x="812.8" y="203.2" width="203.2" height="203.2" fill="#1e5e21"/><g transform="translate(812.8,203.2) scale(10.16) rotate(0)"><rect width="2" height="20" fill="#236b26"/><rect x="4" width="2" height="20" fill="#236b26"/><rect x="8" width="2" height="20" fill="#236b26"/><rect x="12" width="2" height="20" fill="#236b26"/><rect x="16" width="2" height="20" fill="#236b26"/></g><rect x="1016" y="203.2" width="203.2" height="203.2" fill="#194e1c"/><g transform="translate(1016,203.2) scale(10.16) rotate(0)"><rect width="2" height="20" fill="#103312"/><rect x="4" width="2" height="20" fill="#103312"/><rect x="8" width="2" height="20" fill="#103312"/><rect x="12" width="2" height="20" fill="#103312"/><rect x="16" width="2" height="20" fill="#103312"/></g><rect x="1219.2" y="203.2" width="203.2" height="203.2" fill="#27772b"/><g transform="translate(1219.2,203.2) scale(10.16) rotate(0)"><rect width="2" height="20" fill="#103112"/><rect x="4" width="2" height="20" fill="#103112"/><rect x="8" width="2" height="20" fill="#103112"/><rect x="12" width="2" height="20" fill="#103112"/><rect x="16" width="2" height="20" fill="#103112"/></g><rect x="1422.4" y="203.2" width="203.2" height="203.2" fill="#091c0a"/><g transform="translate(1422.4,203.2) scale(10.16) rotate(0)"><rect width="2" height="20" fill="#1f5f22"/><rect x="4" width="2" height="20" fill="#1f5f22"/><rect x="8" width="2" height="20" fill="#1f5f22"/><rect x="12" width="2" height="20" fill="#1f5f22"/><rect x="16" width="2" height="20" fill="#1f5f22"/></g><rect x="1625.6" y="203.2" width="203.2" height="203.2" fill="#081a09"/><g transform="translate(1625.6,203.2) scale(10.16) rotate(0)"><rect width="2" height="20" fill="#3ab240"/><rect x="4" width="2" height="20" fill="#3ab240"/><rect x="8" width="2" height="20" fill="#3ab240"/><rect x="12" width="2" height="20" fill="#3ab240"/><rect x="16" width="2" height="20" fill="#3ab240"/></g><rect x="1828.8" y="203.2" width="203.2" height="203.2" fill="#297e2d"/><g transform="translate(1828.8,203.2) scale(10.16) rotate(0)"><rect width="2" height="20" fill="#226a26"/><rect x="4" width="2" height="20" fill="#226a26"/><rect x="8" width="2" height="20" fill="#226a26"/><rect x="12" width="2" height="20" fill="#226a26"/><rect x="16" width="2" height="20" fill="#226a26"/></g><rect x="0" y="406.4" width="203.2" height="203.2" fill="#0b200c"/><g transform="translate(0,406.4) scale(10.16) rotate(0)"><rect width="2" height="20" fill="#2f9234"/><rect x="4" width="2" height="20" fill="#2f9234"/><rect x="8" width="2" height="20" fill="#2f9234"/><rect x="12" width="2" height="20" fill="#2f9234"/><rect x="16" width="2" height="20" fill="#2f9234"/></g><rect x="203.2" y="406.4" width="203.2" height="203.2" fill="#081a09"/><g transform="translate(203.2,406.4) scale(10.16) rotate(0)"><rect width="2" height="20" fill="#081909"/><rect x="4" width="2" height="20" fill="#081909"/><rect x="8" width="2" height="20" fill="#081909"/><rect x="12" width="2" height="20" fill="#081909"/><rect x="16" width="2" height="20" fill="#081909"/></g><rect x="406.4" y="406.4" width="203.2" height="203.2" fill="#0e2a0f"/><g transform="translate(406.4,406.4) scale(10.16) rotate(0)"><rect width="2" height="20" fill="#3bb641"/><rect x="4" width="2" height="20" fill="#3bb641"/><rect x="8" width="2" height="20" fill="#3bb641"/><rect x="12" width="2" height="20" fill="#3bb641"/><rect x="16" width="2" height="20" fill="#3bb641"/></g><rect x="609.6" y="406.4" width="203.2" height="203.2" fill="#1b521d"/><g transform="translate(609.6,406.4) scale(10.16) rotate(0)"><rect width="2" height="20" fill="#2e8d32"/><rect x="4" width="2" height="20" fill="#2e8d32"/><rect x="8" width="2" height="20" fill="#2e8d32"/><rect x="12" width="2" height="20" fill="#2e8d32"/><rect x="16" width="2" height="20" fill="#2e8d32"/></g><rect x="812.8" y="406.4" width="203.2" height="203.2" fill="#297d2d"/><g transform="translate(812.8,406.4) scale(10.16) rotate(0)"><rect width="2" height="20" fill="#071507"/><rect x="4" width="2" height="20" fill="#071507"/><rect x="8" width="2" height="20" fill="#071507"/><rect x="12" width="2" height="20" fill="#071507"/><rect x="16" width="2" height="20" fill="#071507"/></g><rect x="1016" y="406.4" width="203.2" height="203.2" fill="#236c27"/><g transform="translate(1016,406.4) scale(10.16) rotate(0)"><rect width="2" height="20" fill="#309535"/><rect x="4" width="2" height="20" fill="#309535"/><rect x="8" width="2" height="20" fill="#309535"/><rect x="12" width="2" height="20" fill="#309535"/><rect x="16" width="2" height="20" fill="#309535"/></g><rect x="1219.2" y="406.4" width="203.2" height="203.2" fill="#2a812e"/><g transform="translate(1219.2,406.4) scale(10.16) rotate(0)"><rect width="2" height="20" fill="#0c240d"/><rect x="4" width="2" height="20" fill="#0c240d"/><rect x="8" width="2" height="20" fill="#0c240d"/><rect x="12" width="2" height="20" fill="#0c240d"/><rect x="16" width="2" height="20" fill="#0c240d"/></g><rect x="1422.4" y="406.4" width="203.2" height="203.2" fill="#2d8a31"/><g transform="translate(1422.4,406.4) scale(10.16) rotate(0)"><rect width="2" height="20" fill="#153f17"/><rect x="4" width="2" height="20" fill="#153f17"/><rect x="8" width="2" height="20" fill="#153f17"/><rect x="12" width="2" height="20" fill="#153f17"/><rect x="16" width="2" height="20" fill="#153f17"/></g><rect x="1625.6" y="406.4" width="203.2" height="203.2" fill="#2d8a31"/><g transform="translate(1625.6,406.4) scale(10.16) rotate(0)"><rect width="2" height="20" fill="#339d38"/><rect x="4" width="2" height="20" fill="#339d38"/><rect x="8" width="2" height="20" fill="#339d38"/><rect x="12" width="2" height="20" fill="#339d38"/><rect x="16" width="2" height="20" fill="#339d38"/></g><rect x="1828.8" y="406.4" width="203.2" height="203.2" fill="#297f2d"/><g transform="translate(1828.8,406.4) scale(10.16) rotate(0)"><rect width="2" height="20" fill="#061407"/><rect x="4" width="2" height="20" fill="#061407"/><rect x="8" width="2" height="20" fill="#061407"/><rect x="12" width="2" height="20" fill="#061407"/><rect x="16" width="2" height="20" fill="#061407"/></g><rect x="0" y="609.6" width="203.2" height="203.2" fill="#143e16"/><g transform="translate(0,609.6) scale(10.16) rotate(0)"><rect width="2" height="20" fill="#1b531e"/><rect x="4" width="2" height="20" fill="#1b531e"/><rect x="8" width="2" height="20" fill="#1b531e"/><rect x="12" width="2" height="20" fill="#1b531e"/><rect x="16" width="2" height="20" fill="#1b531e"/></g><rect x="203.2" y="609.6" width="203.2" height="203.2" fill="#154117"/><g transform="translate(203.2,609.6) scale(10.16) rotate(0)"><rect width="2" height="20" fill="#040b04"/><rect x="4" width="2" height="20" fill="#040b04"/><rect x="8" width="2" height="20" fill="#040b04"/><rect x="12" width="2" height="20" fill="#040b04"/><rect x="16" width="2" height="20" fill="#040b04"/></g><rect x="406.4" y="609.6" width="203.2" height="203.2" fill="#051006"/><g transform="translate(406.4,609.6) scale(10.16) rotate(0)"><rect width="2" height="20" fill="#1d5820"/><rect x="4" width="2" height="20" fill="#1d5820"/><rect x="8" width="2" height="20" fill="#1d5820"/><rect x="12" width="2" height="20" fill="#1d5820"/><rect x="16" width="2" height="20" fill="#1d5820"/></g><rect x="609.6" y="609.6" width="203.2" height="203.2" fill="#1d5920"/><g transform="translate(609.6,609.6) scale(10.16) rotate(0)"><rect width="2" height="20" fill="#0e2c10"/><rect x="4" width="2" height="20" fill="#0e2c10"/><rect x="8" width="2" height="20" fill="#0e2c10"/><rect x="12" width="2" height="20" fill="#0e2c10"/><rect x="16" width="2" height="20" fill="#0e2c10"/></g><rect x="812.8" y="609.6" width="203.2" height="203.2" fill="#061307"/><g transform="translate(812.8,609.6) scale(10.16) rotate(0)"><rect width="2" height="20" fill="#339e38"/><rect x="4" width="2" height="20" fill="#339e38"/><rect x="8" width="2" height="20" fill="#339e38"/><rect x="12" width="2" height="20" fill="#339e38"/><rect x="16" width="2" height="20" fill="#339e38"/></g><rect x="1016" y="609.6" width="203.2" height="203.2" fill="#154017"/><g transform="translate(1016,609.6) scale(10.16) rotate(0)"><rect width="2" height="20" fill="#1c551f"/><rect x="4" width="2" height="20" fill="#1c551f"/><rect x="8" width="2" height="20" fill="#1c551f"/><rect x="12" width="2" height="20" fill="#1c551f"/><rect x="16" width="2" height="20" fill="#1c551f"/></g><rect x="1219.2" y="609.6" width="203.2" height="203.2" fill="#123814"/><g transform="translate(1219.2,609.6) scale(10.16) rotate(0)"><rect width="2" height="20" fill="#329937"/><rect x="4" width="2" height="20" fill="#329937"/><rect x="8" width="2" height="20" fill="#329937"/><rect x="12" width="2" height="20" fill="#329937"/><rect x="16" width="2" height="20" fill="#329937"/></g><rect x="1422.4" y="609.6" width="203.2" height="203.2" fill="#051106"/><g transform="translate(1422.4,609.6) scale(10.16) rotate(0)"><rect width="2" height="20" fill="#216424"/><rect x="4" width="2" height="20" fill="#216424"/><rect x="8" width="2" height="20" fill="#216424"/><rect x="12" width="2" height="20" fill="#216424"/><rect x="16" width="2" height="20" fill="#216424"/></g><rect x="1625.6" y="609.6" width="203.2" height="203.2" fill="#2c8831"/><g transform="translate(1625.6,609.6) scale(10.16) rotate(0)"><rect width="2" height="20" fill="#319836"/><rect x="4" width="2" height="20" fill="#319836"/><rect x="8" width="2" height="20" fill="#319836"/><rect x="12" width="2" height="20" fill="#319836"/><rect x="16" width="2" height="20" fill="#319836"/></g><rect x="1828.8" y="609.6" width="203.2" height="203.2" fill="#0c240d"/><g transform="translate(1828.8,609.6) scale(10.16) rotate(0)"><rect width="2" height="20" fill="#206223"/><rect x="4" width="2" height="20" fill="#206223"/><rect x="8" width="2" height="20" fill="#206223"/><rect x="12" width="2" height="20" fill="#206223"/><rect x="16" width="2" height="20" fill="#206223"/></g><rect x="0" y="812.8" width="203.2" height="203.2" fill="#174619"/><g transform="translate(0,812.8) scale(10.16) rotate(0)"><rect width="2" height="20" fill="#277a2b"/><rect x="4" width="2" height="20" fill="#277a2b"/><rect x="8" width="2" height="20" fill="#277a2b"/><rect x="12" width="2" height="20" fill="#277a2b"/><rect x="16" width="2" height="20" fill="#277a2b"/></g><rect x="203.2" y="812.8" width="203.2" height="203.2" fill="#1a511d"/><g transform="translate(203.2,812.8) scale(10.16) rotate(0)"><rect width="2" height="20" fill="#37aa3d"/><rect x="4" width="2" height="20" fill="#37aa3d"/><rect x="8" width="2" height="20" fill="#37aa3d"/><rect x="12" width="2" height="20" fill="#37aa3d"/><rect x="16" width="2" height="20" fill="#37aa3d"/></g><rect x="406.4" y="812.8" width="203.2" height="203.2" fill="#010301"/><g transform="translate(406.4,812.8) scale(10.16) rotate(0)"><rect width="2" height="20" fill="#246f28"/><rect x="4" width="2" height="20" fill="#246f28"/><rect x="8" width="2" height="20" fill="#246f28"/><rect x="12" width="2" height="20" fill="#246f28"/><rect x="16" width="2" height="20" fill="#246f28"/></g><rect x="609.6" y="812.8" width="203.2" height="203.2" fill="#216524"/><g transform="translate(609.6,812.8) scale(10.16) rotate(0)"><rect width="2" height="20" fill="#2c8730"/><rect x="4" width="2" height="20" fill="#2c8730"/><rect x="8" width="2" height="20" fill="#2c8730"/><rect x="12" width="2" height="20" fill="#2c8730"/><rect x="16" width="2" height="20" fill="#2c8730"/></g><rect x="812.8" y="812.8" width="203.2" height="203.2" fill="#37aa3d"/><g transform="translate(812.8,812.8) scale(10.16) rotate(0)"><rect width="2" height="20" fill="#010201"/><rect x="4" width="2" height="20" fill="#010201"/><rect x="8" width="2" height="20" fill="#010201"/><rect x="12" width="2" height="20" fill="#010201"/><rect x="16" width="2" height="20" fill="#010201"/></g><rect x="1016" y="812.8" width="203.2" height="203.2" fill="#143d16"/><g transform="translate(1016,812.8) scale(10.16) rotate(0)"><rect width="2" height="20" fill="#2e8d32"/><rect x="4" width="2" height="20" fill="#2e8d32"/><rect x="8" width="2" height="20" fill="#2e8d32"/><rect x="12" width="2" height="20" fill="#2e8d32"/><rect x="16" width="2" height="20" fill="#2e8d32"/></g><rect x="1219.2" y="812.8" width="203.2" height="203.2" fill="#051006"/><g transform="translate(1219.2,812.8) scale(10.16) rotate(0)"><rect width="2" height="20" fill="#36a63b"/><rect x="4" width="2" height="20" fill="#36a63b"/><rect x="8" width="2" height="20" fill="#36a63b"/><rect x="12" width="2" height="20" fill="#36a63b"/><rect x="16" width="2" height="20" fill="#36a63b"/></g><rect x="1422.4" y="812.8" width="203.2" height="203.2" fill="#113413"/><g transform="translate(1422.4,812.8) scale(10.16) rotate(0)"><rect width="2" height="20" fill="#071507"/><rect x="4" width="2" height="20" fill="#071507"/><rect x="8" width="2" height="20" fill="#071507"/><rect x="12" width="2" height="20" fill="#071507"/><rect x="16" width="2" height="20" fill="#071507"/></g><rect x="1625.6" y="812.8" width="203.2" height="203.2" fill="#319636"/><g transform="translate(1625.6,812.8) scale(10.16) rotate(0)"><rect width="2" height="20" fill="#040b04"/><rect x="4" width="2" height="20" fill="#040b04"/><rect x="8" width="2" height="20" fill="#040b04"/><rect x="12" width="2" height="20" fill="#040b04"/><rect x="16" width="2" height="20" fill="#040b04"/></g><rect x="1828.8" y="812.8" width="203.2" height="203.2" fill="#267429"/><g transform="translate(1828.8,812.8) scale(10.16) rotate(0)"><rect width="2" height="20" fill="#1d5920"/><rect x="4" width="2" height="20" fill="#1d5920"/><rect x="8" width="2" height="20" fill="#1d5920"/><rect x="12" width="2" height="20" fill="#1d5920"/><rect x="16" width="2" height="20" fill="#1d5920"/></g></g></svg>