<?xml version="1.0" standalone="no"?><svg xmlns:xlink="http://www.w3.org/1999/xlink" xmlns="http://www.w3.org/2000/svg" viewBox="0 0 1000 500" preserveAspectRatio="xMaxYMax slice"><g transform="scale(0.4921259842519685)"><rect x="0" y="0" width="2032" height="1016" fill="#000000"/><rect x="0" y="0" width="203.2" height="203.2" fill="#137f19"/><rect x="0" y="0" width="203.2" height="203.2" fill="#c92a4f"/><rect x="203.2" y="0" width="203.2" height="203.2" fill="#117316"/><path d="M 203.2 0 A 203.2 203.2 0 0 1 406.4 203.2 L 203.2 203.2L203.2 0" fill="#a12240"/><rect x="406.4" y="0" width="203.2" height="203.2" fill="#117517"/><path d="M 406.4 0 A 203.2 203.2 0 0 0 609.5999999999999 203.2 L 609.5999999999999 0L406.4 0" fill="#158f1c"/><rect x="609.6" y="0" width="203.2" height="203.2" fill="#18a21f"/><path d="M 609.6 203.2 A 203.2 203.2 0 0 0 812.8 0 L 609.6 0L609.6 203.2" fill="#c5294e"/><rect x="812.8" y="0" width="203.2" height="203.2" fill="#f73362"/><polygon points="812.8,0 1016,203.2 812.8,203.2" fill="#170509"/><rect x="1016" y="0" width="203.2" height="203.2" fill="#3a0c17"/><rect x="1016" y="0" width="203.2" height="203.2" fill="#e9305c"/><rect x="1219.2" y="0" width="203.2" height="203.2" fill="#1ab323"/><polygon points="1219.2,0 1422.4,0 1219.2,203.2" fill="#e02f59"/><rect x="1422.4" y="0" width="203.2" height="203.2" fill="#010501"/><rect x="1422.4" y="0" width="203.2" height="203.2" fill="#0f6714"/><rect x="1625.6" y="0" width="203.2" height="203.2" fill="#14871a"/><path d="M 1625.6 203.2 A 203.2 203.2 0 0 1  1828.8 0 L 1625.6 203.2 A 203.2 203.2 0 0 0 1828.8 0" fill="#062708"/><rect x="1828.8" y="0" width="203.2" height="203.2" fill="#1b060b"/><path d="M 1828.8 203.2 A 203.2 203.2 0 0 1  2032 0 L 1828.8 203.2 A 203.2 203.2 0 0 0 2032 0" fill="#601426"/><rect x="0" y="203.2" width="203.2" height="203.2" fill="#072f09"/><rect x="0" y="203.2" width="203.2" height="203.2" fill="#08390b"/><rect x="203.2" y="203.2" width="203.2" height="203.2" fill="#99203d"/><path d="M 203.2 406.4 A 203.2 203.2 0 0 1  406.4 203.2 L 406.4 406.4L203.2 406.4" fill="#062708"/><rect x="406.4" y="203.2" width="203.2" height="203.2" fill="#0c500f"/><path d="M 406.4 203.2 A 203.2 203.2 0 0 1 609.5999999999999 406.4 L 406.4 406.4L406.4 203.2" fill="#031404"/><rect x="609.6" y="203.2" width="203.2" height="203.2" fill="#7a1930"/><polygon points="609.6,203.2 812.8,203.2 812.8,406.4" fill="#551222"/><rect x="812.8" y="203.2" width="203.2" height="203.2" fill="#b32547"/><polygon points="812.8,203.2 1016,406.4 812.8,406.4" fill="#1e060c"/><rect x="1016" y="203.2" width="203.2" height="203.2" fill="#c2284d"/><polygon points="1016,203.2 1219.2,203.2 1016,406.4" fill="#127b18"/><rect x="1219.2" y="203.2" width="203.2" height="203.2" fill="#07310a"/><path d="M 1219.2 203.2 A 203.2 203.2 0 0 1 1422.4 406.4 L 1219.2 406.4L1219.2 203.2" fill="#052407"/><rect x="1422.4" y="203.2" width="203.2" height="203.2" fill="#931f3a"/><rect x="1422.4" y="203.2" width="203.2" height="203.2" fill="#1cbd25"/><rect x="1625.6" y="203.2" width="203.2" height="203.2" fill="#0b490e"/><polygon points="1625.6,203.2 1828.8,203.2 1625.6,406.4" fill="#127d18"/><rect x="1828.8" y="203.2" width="203.2" height="203.2" fill="#051f06"/><path d="M 1828.8 203.2 A 203.2 203.2 0 0 0 2032 406.4 L 2032 203.2L1828.8 203.2" fill="#ad2444"/><rect x="0" y="406.4" width="203.2" height="203.2" fill="#0a410d"/><path d="M 0 609.5999999999999 A 203.2 203.2 0 0 1  203.2 406.4 L 0 609.5999999999999 A 203.2 203.2 0 0 0 203.2 406.4" fill="#0b4b0f"/><rect x="203.2" y="406.4" width="203.2" height="203.2" fill="#f73362"/><rect x="203.2" y="406.4" width="203.2" height="203.2" fill="#0b4d0f"/><rect x="406.4" y="406.4" width="203.2" height="203.2" fill="#0b480e"/><path d="M 406.4 609.5999999999999 A 203.2 203.2 0 0 1  609.5999999999999 406.4 L 609.5999999999999 609.5999999999999L406.4 609.5999999999999" fill="#0e6113"/><rect x="609.6" y="406.4" width="203.2" height="203.2" fill="#1bba24"/><polygon points="609.6,406.4 812.8,406.4 812.8,609.5999999999999" fill="#ed315e"/><rect x="812.8" y="406.4" width="203.2" height="203.2" fill="#290910"/><path d="M 812.8 406.4 A 203.2 203.2 0 0 1 1016 609.5999999999999 L 812.8 609.5999999999999L812.8 406.4" fill="#1bba24"/><rect x="1016" y="406.4" width="203.2" height="203.2" fill="#8e1e38"/><polygon points="1016,406.4 1219.2,609.5999999999999 1016,609.5999999999999" fill="#106d15"/><rect x="1219.2" y="406.4" width="203.2" height="203.2" fill="#021003"/><rect x="1219.2" y="406.4" width="203.2" height="203.2" fill="#117316"/><rect x="1422.4" y="406.4" width="203.2" height="203.2" fill="#0e5d12"/><path d="M 1422.4 406.4 A 203.2 203.2 0 0 0 1625.6000000000001 609.5999999999999 L 1625.6000000000001 406.4L1422.4 406.4" fill="#1aaf22"/><rect x="1625.6" y="406.4" width="203.2" height="203.2" fill="#1ec827"/><polygon points="1625.6,406.4 1828.8,406.4 1828.8,609.5999999999999" fill="#18a320"/><rect x="1828.8" y="406.4" width="203.2" height="203.2" fill="#561222"/><path d="M 1828.8 609.5999999999999 A 203.2 203.2 0 0 1  2032 406.4 L 1828.8 609.5999999999999 A 203.2 203.2 0 0 0 2032 406.4" fill="#062908"/><rect x="0" y="609.6" width="203.2" height="203.2" fill="#138019"/><polygon points="0,609.6 203.2,812.8 0,812.8" fill="#0d5511"/><rect x="203.2" y="609.6" width="203.2" height="203.2" fill="#531121"/><rect x="203.2" y="609.6" width="203.2" height="203.2" fill="#060102"/><rect x="406.4" y="609.6" width="203.2" height="203.2" fill="#d82d56"/><path d="M 406.4 812.8 A 203.2 203.2 0 0 1  609.5999999999999 609.6 L 609.5999999999999 812.8L406.4 812.8" fill="#75182e"/><rect x="609.6" y="609.6" width="203.2" height="203.2" fill="#041a05"/><path d="M 609.6 812.8 A 203.2 203.2 0 0 1  812.8 609.6 L 609.6 812.8 A 203.2 203.2 0 0 0 812.8 609.6" fill="#7e1a32"/><rect x="812.8" y="609.6" width="203.2" height="203.2" fill="#511120"/><polygon points="812.8,609.6 1016,609.6 1016,812.8" fill="#cc2a51"/><rect x="1016" y="609.6" width="203.2" height="203.2" fill="#b72649"/><path d="M 1016 609.6 A 203.2 203.2 0 0 0 1219.2 812.8 L 1219.2 609.6L1016 609.6" fill="#3c0d18"/><rect x="1219.2" y="609.6" width="203.2" height="203.2" fill="#99203d"/><polygon points="1219.2,609.6 1422.4,609.6 1422.4,812.8" fill="#18a01f"/><rect x="1422.4" y="609.6" width="203.2" height="203.2" fill="#fd3464"/><path d="M 1422.4 609.6 A 203.2 203.2 0 0 1  1625.6000000000001 812.8 L 1422.4 609.6 A 203.2 203.2 0 0 0 1625.6000000000001 812.8" fill="#0e5c12"/><rect x="1625.6" y="609.6" width="203.2" height="203.2" fill="#1eca27"/><polygon points="1625.6,609.6 1828.8,609.6 1625.6,812.8" fill="#010802"/><rect x="1828.8" y="609.6" width="203.2" height="203.2" fill="#180509"/><polygon points="1828.8,609.6 2032,812.8 1828.8,812.8" fill="#881c36"/><rect x="0" y="812.8" width="203.2" height="203.2" fill="#1fd028"/><polygon points="203.2,812.8 203.2,1016 0,1016" fill="#052106"/><rect x="203.2" y="812.8" width="203.2" height="203.2" fill="#cf2b52"/><path d="M 203.2 1016 A 203.2 203.2 0 0 0 406.4 812.8 L 203.2 812.8L203.2 1016" fill="#871c35"/><rect x="406.4" y="812.8" width="203.2" height="203.2" fill="#19ac21"/><polygon points="406.4,812.8 609.5999999999999,812.8 609.5999999999999,1016" fill="#1bb523"/><rect x="609.6" y="812.8" width="203.2" height="203.2" fill="#831b34"/><path d="M 609.6 1016 A 203.2 203.2 0 0 0 812.8 812.8 L 609.6 812.8L609.6 1016" fill="#117116"/><rect x="812.8" y="812.8" width="203.2" height="203.2" fill="#16971d"/><path d="M 812.8 1016 A 203.2 203.2 0 0 1  1016 812.8 L 812.8 1016 A 203.2 203.2 0 0 0 1016 812.8" fill="#460f1c"/><rect x="1016" y="812.8" width="203.2" height="203.2" fill="#db2d57"/><path d="M 1016 1016 A 203.2 203.2 0 0 0 1219.2 812.8 L 1016 812.8L1016 1016" fill="#5b1324"/><rect x="1219.2" y="812.8" width="203.2" height="203.2" fill="#1ab122"/><path d="M 1219.2 812.8 A 203.2 203.2 0 0 1 1422.4 1016 L 1219.2 1016L1219.2 812.8" fill="#031604"/><rect x="1422.4" y="812.8" width="203.2" height="203.2" fill="#19ab21"/><rect x="1422.4" y="812.8" width="203.2" height="203.2" fill="#bc274b"/><rect x="1625.6" y="812.8" width="203.2" height="203.2" fill="#127c18"/><polygon points="1625.6,812.8 1828.8,812.8 1828.8,1016" fill="#911e39"/><rect x="1828.8" y="812.8" width="203.2" height="203.2" fill="#1f060c"/><path d="M 1828.8 812.8 A 203.2 203.2 0 0 1 2032 1016 L 1828.8 1016L1828.8 812.8" fill="#1ecb27"/></g></svg>