<?xml version="1.0" standalone="no"?><svg xmlns:xlink="http://www.w3.org/1999/xlink" xmlns="http://www.w3.org/2000/svg" viewBox="0 0 1000 500" preserveAspectRatio="xMaxYMax slice"><g transform="scale(0.4921259842519685)"><rect x="0" y="0" width="2032" height="1016" fill="#000000"/><rect x="0" y="0" width="203.2" height="203.2" fill="#000000"/><circle cx="50.8" cy="50.8" r="50.8" fill="#319635"/><circle cx="152.39999999999998" cy="50.8" r="50.8" fill="#2a812e"/><circle cx="50.8" cy="152.39999999999998" r="50.8" fill="#143e16"/><circle cx="152.39999999999998" cy="152.39999999999998" r="50.8" fill="#39b13f"/><rect x="203.2" y="0" width="203.2" height="203.2" fill="#000000"/><circle cx="254" cy="50.8" r="50.8" fill="#103011"/><circle cx="355.6" cy="50.8" r="50.8" fill="#020703"/><circle cx="254" cy="152.39999999999998" r="50.8" fill="#1c581f"/><circle cx="355.6" cy="152.39999999999998" r="50.8" fill="#1e5b21"/><rect x="406.4" y="0" width="203.2" height="203.2" fill="#000000"/><circle cx="457.2" cy="50.8" r="50.8" fill="#1c571f"/><circle cx="558.8" cy="50.8" r="50.8" fill="#174719"/><circle cx="457.2" cy="152.39999999999998" r="50.8" fill="#36a73c"/><circle cx="558.8" cy="152.39999999999998" r="50.8" fill="#1a501c"/><circle cx="711.2" cy="101.6" r="101.6" fill="#2e8d32"/><rect x="812.8" y="0" width="203.2" height="203.2" fill="#000000"/><circle cx="863.5999999999999" cy="50.8" r="50.8" fill="#38ac3e"/><circle cx="965.1999999999999" cy="50.8" r="50.8" fill="#1b531e"/><circle cx="863.5999999999999" cy="152.39999999999998" r="50.8" fill="#061206"/><circle cx="965.1999999999999" cy="152.39999999999998" r="50.8" fill="#081909"/><rect x="1016" y="0" width="203.2" height="203.2" fill="#000000"/><circle cx="1066.8" cy="50.8" r="50.8" fill="#236d27"/><circle cx="1168.3999999999999" cy="50.8" r="50.8" fill="#34a13a"/><circle cx="1066.8" cy="152.39999999999998" r="50.8" fill="#246f28"/><circle cx="1168.3999999999999" cy="152.39999999999998" r="50.8" fill="#2a822e"/><circle cx="1320.8" cy="101.6" r="101.6" fill="#2b842f"/><rect x="1422.3999999999999" y="0" width="203.2" height="203.2" fill="#000000"/><circle cx="1473.2" cy="50.8" r="50.8" fill="#319836"/><circle cx="1574.8" cy="50.8" r="50.8" fill="#1a4f1c"/><circle cx="1473.2" cy="152.39999999999998" r="50.8" fill="#257128"/><circle cx="1574.8" cy="152.39999999999998" r="50.8" fill="#17481a"/><rect x="1625.6" y="0" width="203.2" height="203.2" fill="#000000"/><circle cx="1676.3999999999999" cy="50.8" r="50.8" fill="#030803"/><circle cx="1778" cy="50.8" r="50.8" fill="#3ab440"/><circle cx="1676.3999999999999" cy="152.39999999999998" r="50.8" fill="#1e5c21"/><circle cx="1778" cy="152.39999999999998" r="50.8" fill="#164519"/><circle cx="1930.3999999999999" cy="101.6" r="101.6" fill="#113513"/><rect x="0" y="203.2" width="203.2" height="203.2" fill="#000000"/><circle cx="50.8" cy="254" r="50.8" fill="#2e8d32"/><circle cx="152.39999999999998" cy="254" r="50.8" fill="#2e8e33"/><circle cx="50.8" cy="355.6" r="50.8" fill="#26752a"/><circle cx="152.39999999999998" cy="355.6" r="50.8" fill="#081708"/><rect x="203.2" y="203.2" width="203.2" height="203.2" fill="#000000"/><circle cx="254" cy="254" r="50.8" fill="#2e8c32"/><circle cx="355.6" cy="254" r="50.8" fill="#38ac3e"/><circle cx="254" cy="355.6" r="50.8" fill="#226a26"/><circle cx="355.6" cy="355.6" r="50.8" fill="#133c15"/><rect x="406.4" y="203.2" width="203.2" height="203.2" fill="#000000"/><circle cx="457.2" cy="254" r="50.8" fill="#113613"/><circle cx="558.8" cy="254" r="50.8" fill="#35a43b"/><circle cx="457.2" cy="355.6" r="50.8" fill="#39b03f"/><circle cx="558.8" cy="355.6" r="50.8" fill="#226725"/><circle cx="711.2" cy="304.79999999999995" r="101.6" fill="#0c240d"/><circle cx="914.4" cy="304.79999999999995" r="101.6" fill="#287c2c"/><rect x="1016" y="203.2" width="203.2" height="203.2" fill="#000000"/><circle cx="1066.8" cy="254" r="50.8" fill="#0d280e"/><circle cx="1168.3999999999999" cy="254" r="50.8" fill="#2c8831"/><circle cx="1066.8" cy="355.6" r="50.8" fill="#154117"/><circle cx="1168.3999999999999" cy="355.6" r="50.8" fill="#123914"/><rect x="1219.1999999999998" y="203.2" width="203.2" height="203.2" fill="#000000"/><circle cx="1270" cy="254" r="50.8" fill="#103212"/><circle cx="1371.6" cy="254" r="50.8" fill="#1b541e"/><circle cx="1270" cy="355.6" r="50.8" fill="#2e8d32"/><circle cx="1371.6" cy="355.6" r="50.8" fill="#164418"/><circle cx="1524" cy="304.79999999999995" r="101.6" fill="#2b8630"/><rect x="1625.6" y="203.2" width="203.2" height="203.2" fill="#000000"/><circle cx="1676.3999999999999" cy="254" r="50.8" fill="#2d8c32"/><circle cx="1778" cy="254" r="50.8" fill="#2e8f33"/><circle cx="1676.3999999999999" cy="355.6" r="50.8" fill="#1d5820"/><circle cx="1778" cy="355.6" r="50.8" fill="#010301"/><circle cx="1930.3999999999999" cy="304.79999999999995" r="101.6" fill="#2e8f33"/><rect x="0" y="406.4" width="203.2" height="203.2" fill="#000000"/><circle cx="50.8" cy="457.2" r="50.8" fill="#174719"/><circle cx="152.39999999999998" cy="457.2" r="50.8" fill="#020502"/><circle cx="50.8" cy="558.8" r="50.8" fill="#081909"/><circle cx="152.39999999999998" cy="558.8" r="50.8" fill="#081a09"/><circle cx="304.79999999999995" cy="508" r="101.6" fill="#226925"/><rect x="406.4" y="406.4" width="203.2" height="203.2" fill="#000000"/><circle cx="457.2" cy="457.2" r="50.8" fill="#0c260e"/><circle cx="558.8" cy="457.2" r="50.8" fill="#154017"/><circle cx="457.2" cy="558.8" r="50.8" fill="#1b521d"/><circle cx="558.8" cy="558.8" r="50.8" fill="#071708"/><circle cx="711.2" cy="508" r="101.6" fill="#287c2c"/><rect x="812.8" y="406.4" width="203.2" height="203.2" fill="#000000"/><circle cx="863.5999999999999" cy="457.2" r="50.8" fill="#164418"/><circle cx="965.1999999999999" cy="457.2" r="50.8" fill="#091c0a"/><circle cx="863.5999999999999" cy="558.8" r="50.8" fill="#040e05"/><circle cx="965.1999999999999" cy="558.8" r="50.8" fill="#030803"/><circle cx="1117.6" cy="508" r="101.6" fill="#194e1c"/><circle cx="1320.8" cy="508" r="101.6" fill="#010301"/><rect x="1422.3999999999999" y="406.4" width="203.2" height="203.2" fill="#000000"/><circle cx="1473.2" cy="457.2" r="50.8" fill="#164318"/><circle cx="1574.8" cy="457.2" r="50.8" fill="#247028"/><circle cx="1473.2" cy="558.8" r="50.8" fill="#194d1c"/><circle cx="1574.8" cy="558.8" r="50.8" fill="#1e5c21"/><circle cx="1727.1999999999998" cy="508" r="101.6" fill="#1b541e"/><rect x="1828.8" y="406.4" width="203.2" height="203.2" fill="#000000"/><circle cx="1879.6" cy="457.2" r="50.8" fill="#216625"/><circle cx="1981.2" cy="457.2" r="50.8" fill="#319535"/><circle cx="1879.6" cy="558.8" r="50.8" fill="#103312"/><circle cx="1981.2" cy="558.8" r="50.8" fill="#0e2b0f"/><rect x="0" y="609.5999999999999" width="203.2" height="203.2" fill="#000000"/><circle cx="50.8" cy="660.4" r="50.8" fill="#071507"/><circle cx="152.39999999999998" cy="660.4" r="50.8" fill="#287c2c"/><circle cx="50.8" cy="762" r="50.8" fill="#287b2c"/><circle cx="152.39999999999998" cy="762" r="50.8" fill="#206123"/><circle cx="304.79999999999995" cy="711.2" r="101.6" fill="#103212"/><circle cx="508" cy="711.2" r="101.6" fill="#194d1c"/><rect x="609.5999999999999" y="609.5999999999999" width="203.2" height="203.2" fill="#000000"/><circle cx="660.4" cy="660.4" r="50.8" fill="#123714"/><circle cx="762" cy="660.4" r="50.8" fill="#38ac3e"/><circle cx="660.4" cy="762" r="50.8" fill="#2a832f"/><circle cx="762" cy="762" r="50.8" fill="#2a822e"/><rect x="812.8" y="609.5999999999999" width="203.2" height="203.2" fill="#000000"/><circle cx="863.5999999999999" cy="660.4" r="50.8" fill="#194c1b"/><circle cx="965.1999999999999" cy="660.4" r="50.8" fill="#123613"/><circle cx="863.5999999999999" cy="762" r="50.8" fill="#2b832f"/><circle cx="965.1999999999999" cy="762" r="50.8" fill="#1f6123"/><circle cx="1117.6" cy="711.2" r="101.6" fill="#154117"/><rect x="1219.1999999999998" y="609.5999999999999" width="203.2" height="203.2" fill="#000000"/><circle cx="1270" cy="660.4" r="50.8" fill="#0e2c10"/><circle cx="1371.6" cy="660.4" r="50.8" fill="#0c260e"/><circle cx="1270" cy="762" r="50.8" fill="#164318"/><circle cx="1371.6" cy="762" r="50.8" fill="#194d1b"/><rect x="1422.3999999999999" y="609.5999999999999" width="203.2" height="203.2" fill="#000000"/><circle cx="1473.2" cy="660.4" r="50.8" fill="#1a501d"/><circle cx="1574.8" cy="660.4" r="50.8" fill="#297d2d"/><circle cx="1473.2" cy="762" r="50.8" fill="#103312"/><circle cx="1574.8" cy="762" r="50.8" fill="#020702"/><circle cx="1727.1999999999998" cy="711.2" r="101.6" fill="#18491a"/><rect x="1828.8" y="609.5999999999999" width="203.2" height="203.2" fill="#000000"/><circle cx="1879.6" cy="660.4" r="50.8" fill="#1d5b20"/><circle cx="1981.2" cy="660.4" r="50.8" fill="#071608"/><circle cx="1879.6" cy="762" r="50.8" fill="#309435"/><circle cx="1981.2" cy="762" r="50.8" fill="#267429"/><circle cx="101.6" cy="914.4" r="101.6" fill="#164418"/><rect x="203.2" y="812.8" width="203.2" height="203.2" fill="#000000"/><circle cx="254" cy="863.5999999999999" r="50.8" fill="#040d05"/><circle cx="355.6" cy="863.5999999999999" r="50.8" fill="#1a501d"/><circle cx="254" cy="965.1999999999999" r="50.8" fill="#2e8d32"/><circle cx="355.6" cy="965.1999999999999" r="50.8" fill="#0b200c"/><rect x="406.4" y="812.8" width="203.2" height="203.2" fill="#000000"/><circle cx="457.2" cy="863.5999999999999" r="50.8" fill="#154218"/><circle cx="558.8" cy="863.5999999999999" r="50.8" fill="#091c0a"/><circle cx="457.2" cy="965.1999999999999" r="50.8" fill="#26762a"/><circle cx="558.8" cy="965.1999999999999" r="50.8" fill="#0b230c"/><rect x="609.5999999999999" y="812.8" width="203.2" height="203.2" fill="#000000"/><circle cx="660.4" cy="863.5999999999999" r="50.8" fill="#1a501d"/><circle cx="762" cy="863.5999999999999" r="50.8" fill="#287b2c"/><circle cx="660.4" cy="965.1999999999999" r="50.8" fill="#2a802e"/><circle cx="762" cy="965.1999999999999" r="50.8" fill="#2d8c32"/><circle cx="914.4" cy="914.4" r="101.6" fill="#184b1b"/><circle cx="1117.6" cy="914.4" r="101.6" fill="#081909"/><rect x="1219.1999999999998" y="812.8" width="203.2" height="203.2" fill="#000000"/><circle cx="1270" cy="863.5999999999999" r="50.8" fill="#143f16"/><circle cx="1371.6" cy="863.5999999999999" r="50.8" fill="#247028"/><circle cx="1270" cy="965.1999999999999" r="50.8" fill="#113613"/><circle cx="1371.6" cy="965.1999999999999" r="50.8" fill="#0d280e"/><circle cx="1524" cy="914.4" r="101.6" fill="#2c8831"/><rect x="1625.6" y="812.8" width="203.2" height="203.2" fill="#000000"/><circle cx="1676.3999999999999" cy="863.5999999999999" r="50.8" fill="#216725"/><circle cx="1778" cy="863.5999999999999" r="50.8" fill="#154017"/><circle cx="1676.3999999999999" cy="965.1999999999999" r="50.8" fill="#1a511d"/><circle cx="1778" cy="965.1999999999999" r="50.8" fill="#1b521d"/><circle cx="1930.3999999999999" cy="914.4" r="101.6" fill="#061106"/></g></svg>