<?xml version="1.0" standalone="no"?><svg xmlns:xlink="http://www.w3.org/1999/xlink" xmlns="http://www.w3.org/2000/svg" viewBox="0 0 1000 500" preserveAspectRatio="xMaxYMax slice"><g transform="scale(0.4921259842519685)"><rect x="0" y="0" width="2032" height="1016" fill="#000000"/><rect x="0" y="0" width="203.2" height="203.2" fill="#000000"/><g transform="translate(0,0) scale(5.08) rotate(0)"><path d="M10 5L5 0L0 5L5 10L0 15L5 20L10 15L15 20L20 15L15 10L20 5L15 0L10 5Z" fill="#2c8730"/></g><g transform="translate(101.6,0) scale(5.08) rotate(0)"><path d="M10 5L5 0L0 5L5 10L0 15L5 20L10 15L15 20L20 15L15 10L20 5L15 0L10 5Z" fill="#123714"/></g><g transform="translate(0,101.6) scale(5.08) rotate(0)"><path d="M10 5L5 0L0 5L5 10L0 15L5 20L10 15L15 20L20 15L15 10L20 5L15 0L10 5Z" fill="#051006"/></g><g transform="translate(101.6,101.6) scale(5.08) rotate(0)"><path d="M10 5L5 0L0 5L5 10L0 15L5 20L10 15L15 20L20 15L15 10L20 5L15 0L10 5Z" fill="#164418"/></g><g transform="translate(203.2,0) scale(10.16) rotate(0)"><path d="M10 5L5 0L0 5L5 10L0 15L5 20L10 15L15 20L20 15L15 10L20 5L15 0L10 5Z" fill="#061106"/></g><g transform="translate(406.4,0) scale(10.16) rotate(0)"><path d="M10 5L5 0L0 5L5 10L0 15L5 20L10 15L15 20L20 15L15 10L20 5L15 0L10 5Z" fill="#2e8d32"/></g><g transform="translate(609.6,0) scale(10.16) rotate(0)"><path d="M10 5L5 0L0 5L5 10L0 15L5 20L10 15L15 20L20 15L15 10L20 5L15 0L10 5Z" fill="#061206"/></g><g transform="translate(812.8,0) scale(10.16) rotate(0)"><path d="M10 5L5 0L0 5L5 10L0 15L5 20L10 15L15 20L20 15L15 10L20 5L15 0L10 5Z" fill="#164418"/></g><g transform="translate(1016,0) scale(10.16) rotate(0)"><path d="M10 5L5 0L0 5L5 10L0 15L5 20L10 15L15 20L20 15L15 10L20 5L15 0L10 5Z" fill="#297f2d"/></g><g transform="translate(1219.2,0) scale(10.16) rotate(0)"><path d="M10 5L5 0L0 5L5 10L0 15L5 20L10 15L15 20L20 15L15 10L20 5L15 0L10 5Z" fill="#040b04"/></g><g transform="translate(1422.4,0) scale(10.16) rotate(0)"><path d="M10 5L5 0L0 5L5 10L0 15L5 20L10 15L15 20L20 15L15 10L20 5L15 0L10 5Z" fill="#319635"/></g><rect x="1625.6" y="0" width="203.2" height="203.2" fill="#000000"/><g transform="translate(1625.6,0) scale(5.08) rotate(0)"><path d="M10 5L5 0L0 5L5 10L0 15L5 20L10 15L15 20L20 15L15 10L20 5L15 0L10 5Z" fill="#0e2b0f"/></g><g transform="translate(1727.2,0) scale(5.08) rotate(0)"><path d="M10 5L5 0L0 5L5 10L0 15L5 20L10 15L15 20L20 15L15 10L20 5L15 0L10 5Z" fill="#297e2d"/></g><g transform="translate(1625.6,101.6) scale(5.08) rotate(0)"><path d="M10 5L5 0L0 5L5 10L0 15L5 20L10 15L15 20L20 15L15 10L20 5L15 0L10 5Z" fill="#154017"/></g><g transform="translate(1727.2,101.6) scale(5.08) rotate(0)"><path d="M10 5L5 0L0 5L5 10L0 15L5 20L10 15L15 20L20 15L15 10L20 5L15 0L10 5Z" fill="#216424"/></g><g transform="translate(1828.8,0) scale(10.16) rotate(0)"><path d="M10 5L5 0L0 5L5 10L0 15L5 20L10 15L15 20L20 15L15 10L20 5L15 0L10 5Z" fill="#174619"/></g><g transform="translate(0,203.2) scale(10.16) rotate(0)"><path d="M10 5L5 0L0 5L5 10L0 15L5 20L10 15L15 20L20 15L15 10L20 5L15 0L10 5Z" fill="#2e8d32"/></g><g transform="translate(203.2,203.2) scale(10.16) rotate(0)"><path d="M10 5L5 0L0 5L5 10L0 15L5 20L10 15L15 20L20 15L15 10L20 5L15 0L10 5Z" fill="#194c1b"/></g><rect x="406.4" y="203.2" width="203.2" height="203.2" fill="#000000"/><g transform="translate(406.4,203.2) scale(5.08) rotate(0)"><path d="M10 5L5 0L0 5L5 10L0 15L5 20L10 15L15 20L20 15L15 10L20 5L15 0L10 5Z" fill="#3ab440"/></g><g transform="translate(508,203.2) scale(5.08) rotate(0)"><path d="M10 5L5 0L0 5L5 10L0 15L5 20L10 15L15 20L20 15L15 10L20 5L15 0L10 5Z" fill="#103111"/></g><g transform="translate(406.4,304.8) scale(5.08) rotate(0)"><path d="M10 5L5 0L0 5L5 10L0 15L5 20L10 15L15 20L20 15L15 10L20 5L15 0L10 5Z" fill="#2a812e"/></g><g transform="translate(508,304.8) scale(5.08) rotate(0)"><path d="M10 5L5 0L0 5L5 10L0 15L5 20L10 15L15 20L20 15L15 10L20 5L15 0L10 5Z" fill="#2f9134"/></g><g transform="translate(609.6,203.2) scale(10.16) rotate(0)"><path d="M10 5L5 0L0 5L5 10L0 15L5 20L10 15L15 20L20 15L15 10L20 5L15 0L10 5Z" fill="#1f6123"/></g><g transform="translate(812.8,203.2) scale(10.16) rotate(0)"><path d="M10 5L5 0L0 5L5 10L0 15L5 20L10 15L15 20L20 15L15 10L20 5L15 0L10 5Z" fill="#1c581f"/></g><rect x="1016" y="203.2" width="203.2" height="203.2" fill="#000000"/><g transform="translate(1016,203.2) scale(5.08) rotate(0)"><path d="M10 5L5 0L0 5L5 10L0 15L5 20L10 15L15 20L20 15L15 10L20 5L15 0L10 5Z" fill="#081808"/></g><g transform="translate(1117.6,203.2) scale(5.08) rotate(0)"><path d="M10 5L5 0L0 5L5 10L0 15L5 20L10 15L15 20L20 15L15 10L20 5L15 0L10 5Z" fill="#154117"/></g><g transform="translate(1016,304.8) scale(5.08) rotate(0)"><path d="M10 5L5 0L0 5L5 10L0 15L5 20L10 15L15 20L20 15L15 10L20 5L15 0L10 5Z" fill="#1f5f22"/></g><g transform="translate(1117.6,304.8) scale(5.08) rotate(0)"><path d="M10 5L5 0L0 5L5 10L0 15L5 20L10 15L15 20L20 15L15 10L20 5L15 0L10 5Z" fill="#319736"/></g><g transform="translate(1219.2,203.2) scale(10.16) rotate(0)"><path d="M10 5L5 0L0 5L5 10L0 15L5 20L10 15L15 20L20 15L15 10L20 5L15 0L10 5Z" fill="#081a09"/></g><g transform="translate(1422.4,203.2) scale(10.16) rotate(0)"><path d="M10 5L5 0L0 5L5 10L0 15L5 20L10 15L15 20L20 15L15 10L20 5L15 0L10 5Z" fill="#010201"/></g><rect x="1625.6" y="203.2" width="203.2" height="203.2" fill="#000000"/><g transform="translate(1625.6,203.2) scale(5.08) rotate(0)"><path d="M10 5L5 0L0 5L5 10L0 15L5 20L10 15L15 20L20 15L15 10L20 5L15 0L10 5Z" fill="#2b842f"/></g><g transform="translate(1727.2,203.2) scale(5.08) rotate(0)"><path d="M10 5L5 0L0 5L5 10L0 15L5 20L10 15L15 20L20 15L15 10L20 5L15 0L10 5Z" fill="#287c2c"/></g><g transform="translate(1625.6,304.8) scale(5.08) rotate(0)"><path d="M10 5L5 0L0 5L5 10L0 15L5 20L10 15L15 20L20 15L15 10L20 5L15 0L10 5Z" fill="#329c38"/></g><g transform="translate(1727.2,304.8) scale(5.08) rotate(0)"><path d="M10 5L5 0L0 5L5 10L0 15L5 20L10 15L15 20L20 15L15 10L20 5L15 0L10 5Z" fill="#051006"/></g><g transform="translate(1828.8,203.2) scale(10.16) rotate(0)"><path d="M10 5L5 0L0 5L5 10L0 15L5 20L10 15L15 20L20 15L15 10L20 5L15 0L10 5Z" fill="#236d27"/></g><rect x="0" y="406.4" width="203.2" height="203.2" fill="#000000"/><g transform="translate(0,406.4) scale(5.08) rotate(0)"><path d="M10 5L5 0L0 5L5 10L0 15L5 20L10 15L15 20L20 15L15 10L20 5L15 0L10 5Z" fill="#297d2d"/></g><g transform="translate(101.6,406.4) scale(5.08) rotate(0)"><path d="M10 5L5 0L0 5L5 10L0 15L5 20L10 15L15 20L20 15L15 10L20 5L15 0L10 5Z" fill="#071608"/></g><g transform="translate(0,508) scale(5.08) rotate(0)"><path d="M10 5L5 0L0 5L5 10L0 15L5 20L10 15L15 20L20 15L15 10L20 5L15 0L10 5Z" fill="#040b04"/></g><g transform="translate(101.6,508) scale(5.08) rotate(0)"><path d="M10 5L5 0L0 5L5 10L0 15L5 20L10 15L15 20L20 15L15 10L20 5L15 0L10 5Z" fill="#36a63b"/></g><g transform="translate(203.2,406.4) scale(10.16) rotate(0)"><path d="M10 5L5 0L0 5L5 10L0 15L5 20L10 15L15 20L20 15L15 10L20 5L15 0L10 5Z" fill="#2a832f"/></g><g transform="translate(406.4,406.4) scale(10.16) rotate(0)"><path d="M10 5L5 0L0 5L5 10L0 15L5 20L10 15L15 20L20 15L15 10L20 5L15 0L10 5Z" fill="#0e2c10"/></g><g transform="translate(609.6,406.4) scale(10.16) rotate(0)"><path d="M10 5L5 0L0 5L5 10L0 15L5 20L10 15L15 20L20 15L15 10L20 5L15 0L10 5Z" fill="#1d5920"/></g><g transform="translate(812.8,406.4) scale(10.16) rotate(0)"><path d="M10 5L5 0L0 5L5 10L0 15L5 20L10 15L15 20L20 15L15 10L20 5L15 0L10 5Z" fill="#091b0a"/></g><g transform="translate(1016,406.4) scale(10.16) rotate(0)"><path d="M10 5L5 0L0 5L5 10L0 15L5 20L10 15L15 20L20 15L15 10L20 5L15 0L10 5Z" fill="#2c8630"/></g><g transform="translate(1219.2,406.4) scale(10.16) rotate(0)"><path d="M10 5L5 0L0 5L5 10L0 15L5 20L10 15L15 20L20 15L15 10L20 5L15 0L10 5Z" fill="#339f39"/></g><g transform="translate(1422.4,406.4) scale(10.16) rotate(0)"><path d="M10 5L5 0L0 5L5 10L0 15L5 20L10 15L15 20L20 15L15 10L20 5L15 0L10 5Z" fill="#174619"/></g><rect x="1625.6" y="406.4" width="203.2" height="203.2" fill="#000000"/><g transform="translate(1625.6,406.4) scale(5.08) rotate(0)"><path d="M10 5L5 0L0 5L5 10L0 15L5 20L10 15L15 20L20 15L15 10L20 5L15 0L10 5Z" fill="#39af3e"/></g><g transform="translate(1727.2,406.4) scale(5.08) rotate(0)"><path d="M10 5L5 0L0 5L5 10L0 15L5 20L10 15L15 20L20 15L15 10L20 5L15 0L10 5Z" fill="#091d0a"/></g><g transform="translate(1625.6,508) scale(5.08) rotate(0)"><path d="M10 5L5 0L0 5L5 10L0 15L5 20L10 15L15 20L20 15L15 10L20 5L15 0L10 5Z" fill="#339d38"/></g><g transform="translate(1727.2,508) scale(5.08) rotate(0)"><path d="M10 5L5 0L0 5L5 10L0 15L5 20L10 15L15 20L20 15L15 10L20 5L15 0L10 5Z" fill="#2a832f"/></g><g transform="translate(1828.8,406.4) scale(10.16) rotate(0)"><path d="M10 5L5 0L0 5L5 10L0 15L5 20L10 15L15 20L20 15L15 10L20 5L15 0L10 5Z" fill="#103212"/></g><rect x="0" y="609.5999999999999" width="203.2" height="203.2" fill="#000000"/><g transform="translate(0,609.6) scale(5.08) rotate(0)"><path d="M10 5L5 0L0 5L5 10L0 15L5 20L10 15L15 20L20 15L15 10L20 5L15 0L10 5Z" fill="#38ad3e"/></g><g transform="translate(101.6,609.6) scale(5.08) rotate(0)"><path d="M10 5L5 0L0 5L5 10L0 15L5 20L10 15L15 20L20 15L15 10L20 5L15 0L10 5Z" fill="#2d8931"/></g><g transform="translate(0,711.2) scale(5.08) rotate(0)"><path d="M10 5L5 0L0 5L5 10L0 15L5 20L10 15L15 20L20 15L15 10L20 5L15 0L10 5Z" fill="#297f2d"/></g><g transform="translate(101.6,711.2) scale(5.08) rotate(0)"><path d="M10 5L5 0L0 5L5 10L0 15L5 20L10 15L15 20L20 15L15 10L20 5L15 0L10 5Z" fill="#216624"/></g><rect x="203.2" y="609.5999999999999" width="203.2" height="203.2" fill="#000000"/><g transform="translate(203.2,609.6) scale(5.08) rotate(0)"><path d="M10 5L5 0L0 5L5 10L0 15L5 20L10 15L15 20L20 15L15 10L20 5L15 0L10 5Z" fill="#339d38"/></g><g transform="translate(304.8,609.6) scale(5.08) rotate(0)"><path d="M10 5L5 0L0 5L5 10L0 15L5 20L10 15L15 20L20 15L15 10L20 5L15 0L10 5Z" fill="#133a15"/></g><g transform="translate(203.2,711.2) scale(5.08) rotate(0)"><path d="M10 5L5 0L0 5L5 10L0 15L5 20L10 15L15 20L20 15L15 10L20 5L15 0L10 5Z" fill="#236d27"/></g><g transform="translate(304.8,711.2) scale(5.08) rotate(0)"><path d="M10 5L5 0L0 5L5 10L0 15L5 20L10 15L15 20L20 15L15 10L20 5L15 0L10 5Z" fill="#2c8831"/></g><g transform="translate(406.4,609.6) scale(10.16) rotate(0)"><path d="M10 5L5 0L0 5L5 10L0 15L5 20L10 15L15 20L20 15L15 10L20 5L15 0L10 5Z" fill="#329937"/></g><rect x="609.5999999999999" y="609.5999999999999" width="203.2" height="203.2" fill="#000000"/><g transform="translate(609.6,609.6) scale(5.08) rotate(0)"><path d="M10 5L5 0L0 5L5 10L0 15L5 20L10 15L15 20L20 15L15 10L20 5L15 0L10 5Z" fill="#236a26"/></g><g transform="translate(711.2,609.6) scale(5.08) rotate(0)"><path d="M10 5L5 0L0 5L5 10L0 15L5 20L10 15L15 20L20 15L15 10L20 5L15 0L10 5Z" fill="#174619"/></g><g transform="translate(609.6,711.2) scale(5.08) rotate(0)"><path d="M10 5L5 0L0 5L5 10L0 15L5 20L10 15L15 20L20 15L15 10L20 5L15 0L10 5Z" fill="#2b8530"/></g><g transform="translate(711.2,711.2) scale(5.08) rotate(0)"><path d="M10 5L5 0L0 5L5 10L0 15L5 20L10 15L15 20L20 15L15 10L20 5L15 0L10 5Z" fill="#2b842f"/></g><g transform="translate(812.8,609.6) scale(10.16) rotate(0)"><path d="M10 5L5 0L0 5L5 10L0 15L5 20L10 15L15 20L20 15L15 10L20 5L15 0L10 5Z" fill="#1e5c21"/></g><g transform="translate(1016,609.6) scale(10.16) rotate(0)"><path d="M10 5L5 0L0 5L5 10L0 15L5 20L10 15L15 20L20 15L15 10L20 5L15 0L10 5Z" fill="#1c551e"/></g><g transform="translate(1219.2,609.6) scale(10.16) rotate(0)"><path d="M10 5L5 0L0 5L5 10L0 15L5 20L10 15L15 20L20 15L15 10L20 5L15 0L10 5Z" fill="#184b1b"/></g><g transform="translate(1422.4,609.6) scale(10.16) rotate(0)"><path d="M10 5L5 0L0 5L5 10L0 15L5 20L10 15L15 20L20 15L15 10L20 5L15 0L10 5Z" fill="#1d581f"/></g><g transform="translate(1625.6,609.6) scale(10.16) rotate(0)"><path d="M10 5L5 0L0 5L5 10L0 15L5 20L10 15L15 20L20 15L15 10L20 5L15 0L10 5Z" fill="#194d1c"/></g><g transform="translate(1828.8,609.6) scale(10.16) rotate(0)"><path d="M10 5L5 0L0 5L5 10L0 15L5 20L10 15L15 20L20 15L15 10L20 5L15 0L10 5Z" fill="#329b37"/></g><g transform="translate(0,812.8) scale(10.16) rotate(0)"><path d="M10 5L5 0L0 5L5 10L0 15L5 20L10 15L15 20L20 15L15 10L20 5L15 0L10 5Z" fill="#2d8a31"/></g><rect x="203.2" y="812.8" width="203.2" height="203.2" fill="#000000"/><g transform="translate(203.2,812.8) scale(5.08) rotate(0)"><path d="M10 5L5 0L0 5L5 10L0 15L5 20L10 15L15 20L20 15L15 10L20 5L15 0L10 5Z" fill="#020803"/></g><g transform="translate(304.8,812.8) scale(5.08) rotate(0)"><path d="M10 5L5 0L0 5L5 10L0 15L5 20L10 15L15 20L20 15L15 10L20 5L15 0L10 5Z" fill="#1a4f1c"/></g><g transform="translate(203.2,914.4) scale(5.08) rotate(0)"><path d="M10 5L5 0L0 5L5 10L0 15L5 20L10 15L15 20L20 15L15 10L20 5L15 0L10 5Z" fill="#194d1c"/></g><g transform="translate(304.8,914.4) scale(5.08) rotate(0)"><path d="M10 5L5 0L0 5L5 10L0 15L5 20L10 15L15 20L20 15L15 10L20 5L15 0L10 5Z" fill="#123613"/></g><g transform="translate(406.4,812.8) scale(10.16) rotate(0)"><path d="M10 5L5 0L0 5L5 10L0 15L5 20L10 15L15 20L20 15L15 10L20 5L15 0L10 5Z" fill="#040e05"/></g><rect x="609.5999999999999" y="812.8" width="203.2" height="203.2" fill="#000000"/><g transform="translate(609.6,812.8) scale(5.08) rotate(0)"><path d="M10 5L5 0L0 5L5 10L0 15L5 20L10 15L15 20L20 15L15 10L20 5L15 0L10 5Z" fill="#26752a"/></g><g transform="translate(711.2,812.8) scale(5.08) rotate(0)"><path d="M10 5L5 0L0 5L5 10L0 15L5 20L10 15L15 20L20 15L15 10L20 5L15 0L10 5Z" fill="#2b852f"/></g><g transform="translate(609.6,914.4) scale(5.08) rotate(0)"><path d="M10 5L5 0L0 5L5 10L0 15L5 20L10 15L15 20L20 15L15 10L20 5L15 0L10 5Z" fill="#081a09"/></g><g transform="translate(711.2,914.4) scale(5.08) rotate(0)"><path d="M10 5L5 0L0 5L5 10L0 15L5 20L10 15L15 20L20 15L15 10L20 5L15 0L10 5Z" fill="#1a4f1c"/></g><rect x="812.8" y="812.8" width="203.2" height="203.2" fill="#000000"/><g transform="translate(812.8,812.8) scale(5.08) rotate(0)"><path d="M10 5L5 0L0 5L5 10L0 15L5 20L10 15L15 20L20 15L15 10L20 5L15 0L10 5Z" fill="#1e5c21"/></g><g transform="translate(914.4,812.8) scale(5.08) rotate(0)"><path d="M10 5L5 0L0 5L5 10L0 15L5 20L10 15L15 20L20 15L15 10L20 5L15 0L10 5Z" fill="#329c38"/></g><g transform="translate(812.8,914.4) scale(5.08) rotate(0)"><path d="M10 5L5 0L0 5L5 10L0 15L5 20L10 15L15 20L20 15L15 10L20 5L15 0L10 5Z" fill="#194d1c"/></g><g transform="translate(914.4,914.4) scale(5.08) rotate(0)"><path d="M10 5L5 0L0 5L5 10L0 15L5 20L10 15L15 20L20 15L15 10L20 5L15 0L10 5Z" fill="#319736"/></g><g transform="translate(1016,812.8) scale(10.16) rotate(0)"><path d="M10 5L5 0L0 5L5 10L0 15L5 20L10 15L15 20L20 15L15 10L20 5L15 0L10 5Z" fill="#0c240d"/></g><rect x="1219.1999999999998" y="812.8" width="203.2" height="203.2" fill="#000000"/><g transform="translate(1219.2,812.8) scale(5.08) rotate(0)"><path d="M10 5L5 0L0 5L5 10L0 15L5 20L10 15L15 20L20 15L15 10L20 5L15 0L10 5Z" fill="#143f17"/></g><g transform="translate(1320.8,812.8) scale(5.08) rotate(0)"><path d="M10 5L5 0L0 5L5 10L0 15L5 20L10 15L15 20L20 15L15 10L20 5L15 0L10 5Z" fill="#103011"/></g><g transform="translate(1219.2,914.4) scale(5.08) rotate(0)"><path d="M10 5L5 0L0 5L5 10L0 15L5 20L10 15L15 20L20 15L15 10L20 5L15 0L10 5Z" fill="#246f28"/></g><g transform="translate(1320.8,914.4) scale(5.08) rotate(0)"><path d="M10 5L5 0L0 5L5 10L0 15L5 20L10 15L15 20L20 15L15 10L20 5L15 0L10 5Z" fill="#0b210c"/></g><g transform="translate(1422.4,812.8) scale(10.16) rotate(0)"><path d="M10 5L5 0L0 5L5 10L0 15L5 20L10 15L15 20L20 15L15 10L20 5L15 0L10 5Z" fill="#0d290f"/></g><g transform="translate(1625.6,812.8) scale(10.16) rotate(0)"><path d="M10 5L5 0L0 5L5 10L0 15L5 20L10 15L15 20L20 15L15 10L20 5L15 0L10 5Z" fill="#143f16"/></g><g transform="translate(1828.8,812.8) scale(10.16) rotate(0)"><path d="M10 5L5 0L0 5L5 10L0 15L5 20L10 15L15 20L20 15L15 10L20 5L15 0L10 5Z" fill="#154117"/></g></g></svg>